# xmcd
#
# Track frame offsets:
#	150
#	41841
#	72122
#	86831
#	121631
#	146197
#	179076
#	201048
#	224810
#	240938
#	281316
#
# Disc length: 4047 seconds
#
# Revision: 1
# Processed by: cddbd v1.5.2PL0 Copyright (c) Steve Scherf et al.
# Submitted via: audiograbber 1.83.01
#
DISCID=a80fcd0b
DTITLE=Grateful Dead - 71-11-12 San Antonio Civic Auditorium, San Antonio TX
DYEAR=1900
DGENRE=
TTITLE0=Truckin'
TTITLE1=Loser
TTITLE2=BIODTL
TTITLE3=Sugaree
TTITLE4=Jack Straw
TTITLE5=Tennessee Jed
TTITLE6=El Paso
TTITLE7=Brown-Eyed Women
TTITLE8=Mexicali Blues
TTITLE9=Black Peter
TTITLE10=One More Saturday Night
EXTD=
EXTT0=
EXTT1=
EXTT2=
EXTT3=
EXTT4=
EXTT5=
EXTT6=
EXTT7=
EXTT8=
EXTT9=
EXTT10=
PLAYORDER=
